<?xml version="1.0" encoding="utf-8"?>
<!-- Generator: Adobe Illustrator 15.1.0, SVG Export Plug-In . SVG Version: 6.00 Build 0)  -->
<!DOCTYPE svg PUBLIC "-//W3C//DTD SVG 1.1//EN" "http://www.w3.org/Graphics/SVG/1.1/DTD/svg11.dtd">
<svg version="1.1" id="Layer_2" xmlns="http://www.w3.org/2000/svg" xmlns:xlink="http://www.w3.org/1999/xlink" x="0px" y="0px"
	 width="1920px" height="1080px" viewBox="0 0 1920 1080" enable-background="new 0 0 1920 1080" xml:space="preserve">
<line stroke="#000000" stroke-miterlimit="10" x1="-12.793" y1="994.81" x2="245.937" y2="736.079"/>
<line stroke="#000000" stroke-miterlimit="10" x1="245.937" y1="736.079" x2="615.778" y2="1105.921"/>
<line fill="none" stroke="#000000" stroke-miterlimit="10" x1="430.857" y1="921" x2="506.254" y2="845.604"/>
<line fill="none" stroke="#000000" stroke-miterlimit="10" x1="506.254" y1="845.604" x2="756.785" y2="1096.135"/>
<line fill="none" stroke="#000000" stroke-miterlimit="10" x1="641.174" y1="980.523" x2="774.706" y2="846.992"/>
<line fill="none" stroke="#000000" stroke-miterlimit="10" x1="774.706" y1="846.992" x2="1029.469" y2="1101.754"/>
<line fill="none" stroke="#000000" stroke-miterlimit="10" x1="335.619" y1="825.762" x2="488.793" y2="672.588"/>
<line fill="none" stroke="#000000" stroke-miterlimit="10" x1="488.793" y1="672.588" x2="718.952" y2="902.746"/>
<line fill="none" stroke="#000000" stroke-miterlimit="10" x1="681.65" y1="865.444" x2="769.746" y2="777.349"/>
<line fill="none" stroke="#000000" stroke-miterlimit="10" x1="769.746" y1="777.349" x2="1088.532" y2="1096.135"/>
<line fill="none" stroke="#000000" stroke-miterlimit="10" x1="1138" y1="1096.135" x2="1239.457" y2="994.678"/>
<line fill="none" stroke="#000000" stroke-miterlimit="10" x1="1239.457" y1="994.678" x2="1343.061" y2="1098.281"/>
<line fill="none" stroke="#000000" stroke-miterlimit="10" x1="1281.652" y1="1036.873" x2="1477.684" y2="840.842"/>
<line fill="none" stroke="#000000" stroke-miterlimit="10" x1="1477.684" y1="840.842" x2="1730.857" y2="1094.017"/>
<line fill="none" stroke="#000000" stroke-miterlimit="10" x1="1029.271" y1="1036.873" x2="1383.238" y2="682.904"/>
<line fill="none" stroke="#000000" stroke-miterlimit="10" x1="1383.238" y1="682.904" x2="1843.425" y2="1143.091"/>
<line fill="none" stroke="#000000" stroke-miterlimit="10" x1="1603.08" y1="902.746" x2="1977.682" y2="528.144"/>
</svg>
